<svg width="46" height="17" viewBox="0 0 46 17" fill="none" xmlns="http://www.w3.org/2000/svg">
<path d="M1.66602 15.2359L1.76026 15.2025L2.43397 14.8133L3.37727 14.8705L4.06624 14.2392L4.82222 13.795L5.73002 13.7436L6.54314 13.444L7.26146 12.8946L8.10813 12.6841L9.06778 12.7819L9.68252 11.9348L10.5653 11.827L11.3123 11.3269L12.2732 11.4739L13.0642 11.1042L13.8629 10.7467L14.6404 10.2973L15.6399 10.6888L16.3318 9.87101L17.2543 10.008L18.0654 9.6424L19.011 9.98678L19.7517 9.18433L20.6402 9.23321L21.5102 9.18475L22.3625 9.01141L23.2751 9.34939L24.0993 8.92932L24.9587 8.8166L25.8565 9.14439L26.6769 8.54005L27.5548 8.65658L28.4295 8.81141L29.2822 8.48206L30.148 8.42769L31.0224 8.89414L31.8836 8.23855L32.745 8.83524L33.6069 8.76743L34.508 8.27131L34.8764 8.64722M33.8014 1.66577L33.8824 1.72438L34.647 1.91337L35.2479 2.64085L36.1751 2.73888L37.0056 3.03866L37.6091 3.72345L38.3305 4.20129L39.1919 4.48505L39.8312 5.08573L40.2495 5.9514L41.2896 6.06127L41.8084 6.78672L42.602 7.2148L42.9138 8.13614C42.9138 8.13614 43.4817 8.35833 43.5977 8.67896C43.7137 8.99959 42.7725 8.8643 42.7725 8.8643L42.1823 9.48544L41.9547 10.4992L41.0337 10.7775L40.4243 11.3944L39.7475 11.9333L38.9825 12.3556L38.2315 12.7857L37.8427 13.746L37.1132 14.13L36.4557 14.5767L35.6386 14.6749L35.4353 14.7544" stroke="#989AE4" stroke-width="3.33133" stroke-linecap="round"/>
</svg>
