<svg width="714" height="510" viewBox="0 0 714 510" fill="none" xmlns="http://www.w3.org/2000/svg">
<path d="M350.812 23.4678C356.261 23.4678 361.149 24.164 364.636 25.2598C366.386 25.8098 367.719 26.4409 368.59 27.0879C369.481 27.7505 369.702 28.2806 369.702 28.6191C369.702 28.9576 369.482 29.4885 368.59 30.1514C367.719 30.7984 366.386 31.4295 364.636 31.9795C361.149 33.0753 356.261 33.7715 350.812 33.7715C345.364 33.7714 340.477 33.0753 336.99 31.9795C335.24 31.4295 333.907 30.7984 333.036 30.1514C332.144 29.4885 331.924 28.9576 331.924 28.6191C331.924 28.2806 332.145 27.7505 333.036 27.0879C333.907 26.4409 335.24 25.8098 336.99 25.2598C340.477 24.164 345.364 23.4678 350.812 23.4678Z" fill="#E9D3DF" stroke="#221208" stroke-width="2.28956"/>
<rect x="1.14478" y="36.0606" width="710.909" height="467.071" rx="8.01347" fill="#F13475" stroke="#221208" stroke-width="2.28956"/>
<path d="M365.695 28.0469H701.688C702.321 28.0469 702.833 28.5601 702.833 29.1924V490.539C702.833 491.171 702.321 491.684 701.688 491.684H365.695C361.27 491.684 357.682 488.096 357.682 483.67V36.0605C357.682 31.6349 361.27 28.0469 365.695 28.0469Z" fill="#F2F2E8" stroke="#221208" stroke-width="2.28956"/>
<path d="M693.645 18.9521C694.289 18.9349 694.82 19.4524 694.82 20.0967V481.441C694.82 482.062 694.326 482.569 693.706 482.586L365.911 491.431C361.403 491.552 357.682 487.93 357.682 483.42V35.8174C357.682 31.4758 361.14 27.9237 365.479 27.8066L693.645 18.9521Z" fill="#F2F2E8" stroke="#221208" stroke-width="2.28956"/>
<path d="M11.3857 28.0469H342.227C346.652 28.0469 350.24 31.6349 350.24 36.0605V483.67C350.24 488.096 346.652 491.684 342.227 491.684H11.3857C10.7536 491.684 10.2404 491.171 10.2402 490.539V29.1924C10.2402 28.5601 10.7535 28.0469 11.3857 28.0469Z" fill="#F2F2E8" stroke="#221208" stroke-width="2.28956"/>
<path d="M32.0869 1.92004L342.895 27.8829C347.047 28.2298 350.241 31.7013 350.241 35.8683V482.873C350.241 487.562 346.233 491.249 341.561 490.859L31.8965 464.991C31.3033 464.942 30.8467 464.446 30.8467 463.851V3.06165C30.8467 2.39185 31.4195 1.86436 32.0869 1.92004Z" fill="#F2F2E8" stroke="#221208" stroke-width="2.28956"/>
<path d="M350.812 498.552C356.261 498.552 361.149 499.248 364.636 500.344C366.386 500.894 367.719 501.525 368.59 502.172C369.481 502.835 369.702 503.365 369.702 503.703C369.702 504.042 369.482 504.573 368.59 505.235C367.719 505.882 366.386 506.514 364.636 507.064C361.149 508.159 356.261 508.856 350.812 508.856C345.364 508.856 340.477 508.159 336.99 507.064C335.24 506.514 333.907 505.882 333.036 505.235C332.144 504.573 331.924 504.042 331.924 503.703C331.924 503.365 332.145 502.835 333.036 502.172C333.907 501.525 335.24 500.894 336.99 500.344C340.477 499.248 345.364 498.552 350.812 498.552Z" fill="#E9D3DF" stroke="#221208" stroke-width="2.28956"/>
<path d="M674.118 1.3457C674.785 1.2905 675.357 1.81783 675.357 2.4873V463.818C675.357 464.414 674.901 464.91 674.308 464.959L361.204 490.867C356.534 491.254 352.529 487.567 352.529 482.881V35.334C352.529 31.1646 355.727 27.6917 359.882 27.3477L674.118 1.3457Z" fill="#F2F2E8" stroke="#221208" stroke-width="2.28956"/>
<path d="M674.118 1.3457C674.785 1.2905 675.357 1.81783 675.357 2.4873V463.818C675.357 464.414 674.901 464.91 674.308 464.959L361.204 490.867C356.534 491.254 352.529 487.567 352.529 482.881V35.334C352.529 31.1646 355.727 27.6917 359.882 27.3477L674.118 1.3457Z" fill="#F2F2E8" stroke="#221208" stroke-width="2.28956"/>
</svg>
